<?xml version="1.0" encoding="UTF-8"?>
<svg version="1.1" xmlns="http://www.w3.org/2000/svg" width="512" height="512">
<path d="M0 0 C0.95648314 -0.00311998 1.91296627 -0.00623996 2.89843374 -0.00945449 C6.07009491 -0.01736526 9.24156104 -0.01113802 12.41322327 -0.00482178 C14.7007661 -0.00753473 16.98830807 -0.01109737 19.27584839 -0.01544189 C25.46590988 -0.02453241 31.65590444 -0.02103527 37.84596705 -0.01468372 C44.33726473 -0.00960583 50.82855683 -0.0143202 57.31985474 -0.01745605 C68.91753966 -0.02132329 80.51519415 -0.01512316 92.11287428 -0.00493738 C102.6078624 0.00399495 113.10280626 0.00244648 123.59779358 -0.0067749 C135.81153973 -0.01750158 148.02525439 -0.02144924 160.23900515 -0.01555037 C166.69468629 -0.01243991 173.150337 -0.01199586 179.60601616 -0.01862335 C185.67750886 -0.02442143 191.74891838 -0.02035493 197.82040215 -0.00883484 C200.04231122 -0.00620129 202.26422735 -0.00693092 204.48613358 -0.01136017 C224.68566086 -0.04789926 242.52615169 1.05564805 258.18690491 15.36724854 C271.74888026 29.36448999 274.18254244 44.71436313 274.14906311 63.43707275 C274.15341763 65.05452712 274.15860323 66.67197942 274.16455078 68.28942871 C274.17787247 72.65729506 274.17852711 77.02507452 274.17598748 81.39295721 C274.17491312 85.05073805 274.17981298 88.70850165 274.1845929 92.36627877 C274.19566446 101.00154369 274.19613875 109.63676511 274.19007874 118.27203369 C274.18404035 127.15503164 274.19635194 136.03787113 274.2176488 144.92084205 C274.23531046 152.57128429 274.24125898 160.22167629 274.23801106 167.87213814 C274.23620534 172.43091466 274.23876298 176.98957813 274.2527256 181.54833603 C274.2653739 185.83796346 274.26329422 190.12734529 274.25031471 194.4169693 C274.24796455 195.98256898 274.250627 197.54818633 274.25893784 199.11376572 C274.34892268 217.39681038 270.44448232 232.37566324 257.51893616 245.84381104 C253.6294025 249.38862974 249.56853035 251.91447574 244.87440491 254.25396729 C244.15768616 254.6419751 243.44096741 255.02998291 242.70252991 255.42974854 C230.44542039 261.58067028 216.84478111 260.30279739 203.57989502 259.76836777 C139.82060491 254.99224407 139.82060491 254.99224407 84.37413025 281.04774475 C82.3721873 282.90912914 80.43747245 284.82040093 78.5113678 286.75982666 C73.48147646 291.76475092 67.63099675 295.39915101 61.63938904 299.13912964 C58.79138744 300.93804632 56.01621338 302.83749163 53.22987366 304.73052979 C52.20442444 305.42017822 51.17897522 306.10982666 50.12245178 306.82037354 C48.02903129 308.22845598 45.93799287 309.64008462 43.84901428 311.05474854 C42.84032288 311.73150635 41.83163147 312.40826416 40.79237366 313.10552979 C39.89284973 313.71219482 38.99332581 314.31885986 38.06654358 314.94390869 C35.87440491 316.25396729 35.87440491 316.25396729 33.87440491 316.25396729 C33.87440491 297.77396729 33.87440491 279.29396729 33.87440491 260.25396729 C20.2634825 260.33270607 20.2634825 260.33270607 6.65272522 260.43414307 C-12.29464865 260.52927942 -30.11400049 258.60004828 -44.75059509 245.19146729 C-55.01345367 234.22334117 -60.2292808 221.17626559 -60.26603699 206.31118774 C-60.26900811 205.63665829 -60.27197923 204.96212884 -60.27504039 204.2671591 C-60.28367239 202.01974773 -60.28523096 199.77238998 -60.28672791 197.52496338 C-60.29136005 195.90810026 -60.29638524 194.29123822 -60.30177307 192.67437744 C-60.31486257 188.28976973 -60.32133551 183.9051773 -60.32578373 179.52055311 C-60.32872058 176.77695099 -60.33282658 174.033353 -60.3372879 171.28975296 C-60.35095495 162.69337973 -60.36062498 154.09701598 -60.36448979 145.50063264 C-60.36896601 135.60052393 -60.38649698 125.70055358 -60.41549039 115.80048692 C-60.43716005 108.1331477 -60.44719692 100.46584726 -60.44853091 92.79847777 C-60.44957534 88.22621749 -60.45540535 83.65408743 -60.47335052 79.08185959 C-60.48992242 74.77588394 -60.49194284 70.47013512 -60.48321152 66.16413879 C-60.48244594 64.59208694 -60.48671983 63.02002242 -60.49666977 61.44800186 C-60.60563086 43.14550862 -56.71959472 28.1410627 -43.76622009 14.66412354 C-31.65863706 3.61326742 -16.00060088 -0.08202855 0 0 Z M32.87440491 64.25396729 C28.34760021 71.13618256 25.84289484 78.34980015 27.28456116 86.60162354 C29.69500677 95.01653246 34.5309863 100.97327993 42.04237366 105.34381104 C48.2969994 108.45111977 56.0918252 108.37048047 62.70643616 106.41802979 C69.49194908 103.31191174 74.70259325 98.76047647 77.96815491 91.98443604 C80.90921295 83.99183848 80.40332876 76.94622828 76.87440491 69.25396729 C73.11708708 62.98068737 68.86121189 59.10829612 62.18690491 56.00396729 C50.93657979 53.45672386 40.96424635 55.79640578 32.87440491 64.25396729 Z M138.46815491 66.97271729 C133.88130244 73.538212 134.15497525 80.49816468 134.87440491 88.25396729 C135.78843001 91.28815372 137.05378723 93.67371258 138.87440491 96.25396729 C139.49315491 97.16146729 140.11190491 98.06896729 140.74940491 99.00396729 C146.42600091 105.0144807 152.51799978 107.30791615 160.62440491 107.69146729 C167.99763277 107.53614526 173.4266132 105.30493768 178.94471741 100.42193604 C184.31079555 94.73030086 186.92545312 89.13003934 187.31190491 81.31646729 C187.03945953 73.59323319 183.67707185 67.38611779 178.51893616 61.75787354 C172.43942897 56.1982292 165.83295124 54.80450788 157.81581116 54.92193604 C149.35260682 55.87727783 143.84422813 60.71532058 138.46815491 66.97271729 Z M39.87440491 161.25396729 C43.52931952 175.87362573 48.21103552 185.72109367 58.87440491 196.25396729 C59.48799866 196.8894751 60.10159241 197.52498291 60.73377991 198.17974854 C73.13823747 210.13361683 91.31525069 214.95494437 108.15589905 214.72247314 C126.1880557 213.97945905 142.5028922 206.89452046 155.28065491 194.12115479 C159.15196412 189.84172562 162.12542359 185.31301693 164.87440491 180.25396729 C165.48735413 179.15375244 165.48735413 179.15375244 166.11268616 178.03131104 C168.9775526 172.62452673 170.87440491 167.44677887 170.87440491 161.25396729 C127.64440491 161.25396729 84.41440491 161.25396729 39.87440491 161.25396729 Z " fill="#FFFFFF" transform="translate(149.12559509277344,142.74603271484375)"/>
<path d="M0 0 C18 0 18 0 26 4 C30.95041164 9.08068563 32.24578797 13.7878993 32.29052734 20.7746582 C32.29724457 21.43553436 32.30396179 22.09641052 32.31088257 22.77731323 C32.32980624 24.95188008 32.33378403 27.12613729 32.3359375 29.30078125 C32.34237004 30.82146834 32.34909873 32.34215421 32.35610962 33.86283875 C32.36806879 37.04782986 32.37179192 40.23271263 32.37060547 43.41772461 C32.37040251 47.48295907 32.39768595 51.54749262 32.43214989 55.61256123 C32.4544776 58.75344482 32.45844121 61.8941614 32.45738602 65.0351162 C32.45973387 66.53292439 32.46851113 68.03073776 32.48405075 69.52846718 C32.6408746 86.20646506 32.6408746 86.20646506 26.21875 92.83984375 C25.36796875 93.38318359 25.36796875 93.38318359 24.5 93.9375 C23.9328125 94.31777344 23.365625 94.69804687 22.78125 95.08984375 C15.65911864 98.72900297 7.97892991 97 0 97 C0 64.99 0 32.98 0 0 Z " fill="#FFFFFF" transform="translate(433,226)"/>
<path d="M0 0 C0 32.01 0 64.02 0 97 C-20.43243243 97 -20.43243243 97 -26.75 91.6875 C-30.92821885 86.69684971 -32.3745557 82.59935032 -32.40405273 76.11181641 C-32.41091599 75.45079422 -32.41777924 74.78977203 -32.42485046 74.10871887 C-32.44304172 71.93944363 -32.43929172 69.77089711 -32.43359375 67.6015625 C-32.43815989 66.08230354 -32.44346675 64.56304665 -32.44947815 63.04379272 C-32.45839463 59.86472161 -32.45600371 56.68590188 -32.44604492 53.50683594 C-32.43456814 49.44943732 -32.45475345 45.39291072 -32.48396206 41.3356266 C-32.50238421 38.19901084 -32.50201954 35.06260162 -32.49632454 31.92594528 C-32.496172 30.43094028 -32.50216044 28.93592068 -32.51461601 27.44096756 C-32.57195912 19.42940864 -32.58408135 12.84895202 -28 6 C-19.61759815 -2.16746846 -12.37123529 0 0 0 Z " fill="#FFFFFF" transform="translate(79,226)"/>
<path d="M0 0 C5.48248252 5.0743299 9.52197918 10.39307435 10.3125 18.01171875 C10.63715789 26.74704506 8.87601826 32.48054273 4.25 39.75 C1.21583272 42.78416728 -2.17575921 45.0547693 -6 47 C-6.66 47 -7.32 47 -8 47 C-8 54.59 -8 62.18 -8 70 C-13.28 70 -18.56 70 -24 70 C-24 62.41 -24 54.82 -24 47 C-25.98 46.34 -27.96 45.68 -30 45 C-36.72238334 40.57423161 -40.51334007 35.07942144 -42.75 27.4375 C-43.64413495 18.71968428 -41.81398481 11.62297504 -37.25 4.125 C-27.1012171 -5.45996163 -11.92138809 -8.77091555 0 0 Z " fill="#FFFFFF" transform="translate(271,53)"/>
</svg>
